<?xml version="1.0" standalone="no"?>
<!DOCTYPE svg PUBLIC "-//W3C//DTD SVG 20010904//EN"
 "http://www.w3.org/TR/2001/REC-SVG-20010904/DTD/svg10.dtd">
<svg version="1.0" xmlns="http://www.w3.org/2000/svg"
 width="256.000000pt" height="256.000000pt" viewBox="0 0 256.000000 256.000000"
 preserveAspectRatio="xMidYMid meet">
<metadata>
Created by potrace 1.11, written by Peter Selinger 2001-2013
</metadata>
<g transform="translate(0.000000,256.000000) scale(0.100000,-0.100000)"
fill="#000000" stroke="none">
<path d="M1155 2209 c-22 -5 -56 -11 -75 -15 -45 -8 -141 -44 -210 -79 -175
-88 -320 -235 -411 -416 -62 -125 -90 -240 -94 -394 -2 -71 0 -148 5 -170 6
-22 13 -55 16 -73 11 -63 98 -268 124 -292 3 -3 14 -18 24 -35 11 -16 35 -47
54 -67 20 -21 47 -52 62 -68 15 -17 32 -30 38 -30 7 0 12 -4 12 -9 0 -14 127
-96 204 -132 36 -17 64 -34 61 -38 -2 -4 22 -16 53 -26 80 -25 359 -30 458 -8
254 57 443 177 584 373 22 30 45 60 50 67 6 7 10 19 10 27 0 8 4 16 9 18 10 4
77 172 84 213 3 17 11 59 17 95 24 130 -4 352 -60 487 -37 89 -102 194 -160
257 -57 63 -134 136 -143 136 -4 0 -17 8 -28 18 -10 11 -32 25 -47 33 -15 8
-29 16 -32 19 -9 11 -130 61 -182 76 -54 17 -64 19 -138 34 -54 10 -229 9
-285 -1z"/>
<path d="M1949 555 c-59 -21 -148 -76 -168 -104 -34 -48 -36 -77 -7 -96 32
-21 84 -14 136 18 19 12 51 29 70 38 19 9 59 40 87 68 l52 52 -33 14 c-48 20
-96 24 -137 10z"/>
<path d="M2233 404 c-63 -31 -50 -91 17 -81 19 3 53 13 74 22 l39 17 -24 23
c-32 32 -67 38 -106 19z"/>
</g>
</svg>
